<?xml version="1.0" encoding="UTF-8"?>
<svg id="Layer_1" data-name="Layer 1" xmlns="http://www.w3.org/2000/svg" viewBox="0 0 1140.28 344.02">
  <defs>
    <style>
      .cls-1 {
        fill: #66fcf1;
        stroke-width: 0px;
      }
    </style>
  </defs>
  <g>
    <path class="cls-1" d="M78.74,159.89v8.73l26.2,26.2v52.55l-26.2,26.2H0V63.63h78.76l26.2,26.2v52.53h-8.73v8.73h-8.73v8.73l-8.75.06ZM70.02,98.58h-34.94v35h34.94v-35ZM70.02,203.54h-8.73v-8.73h-8.73v-8.73h-8.73v-8.73h-8.73v61.25h34.94v-35.05Z"/>
    <path class="cls-1" d="M172.09,98.58v70h-8.75v-8.75h-8.76v-8.75h-8.75v-8.76h-8.75v-43.74h35ZM163.35,194.83h8.75v78.76h-35v-105.01h8.75v8.75h8.75v8.76h8.76v8.75Z"/>
    <path class="cls-1" d="M238.89,133.58v104.99h8.75l26.25,26.25v8.76h-43.74v-8.76h-8.76v-8.75h-8.75v-8.75h-8.75v-113.75h-8.75v-8.75h-8.76v-8.75h-8.75v-8.76h-8.75v-8.75h35v-35h35v35h8.75v8.75h8.76v8.76h8.75v8.75h8.75v8.75h-35Z"/>
    <path class="cls-1" d="M355.24,151.08l43.76,43.74v52.5l-26.25,26.25h-52.5l-26.25-26.25v-43.76h8.76v8.76h8.75v8.75h8.75v8.75h8.75v8.75l17.51,17.5,17.5-17.5v-26.25l-26.25-26.24-26.25-26.25v-8.75h-8.75v-8.76h-8.76v-52.49l26.25-26.25h52.5l26.25,26.25v43.75h-8.76l-8.75-8.75-17.49-17.51v-8.75l-17.5-17.51-17.51,17.51v26.25l8.76,8.75,8.75,8.76,8.75,8.75Z"/>
    <path class="cls-1" d="M536.38,159.83v113.75h-35v-105.01l-17.49-17.49-17.5,17.49v105.01h-35V63.58h8.75v8.75h8.76v8.75h8.75v8.76h8.75v43.75h43.76l26.24,26.25Z"/>
    <path class="cls-1" d="M671.59,159.78v87.5l-26.2,26.2h-52.5l-26.2-26.2v-87.5l26.2-26.2h52.5l26.2,26.2ZM636.66,168.59l-17.47-17.47-17.47,17.47v70l17.47,17.47,17.47-17.47v-70Z"/>
    <path class="cls-1" d="M808.08,159.93v87.5l-26.2,26.2h-43.76v43.75h-8.73v8.73h-8.73v8.73h-8.73v8.73h-8.73v-210h8.73v8.73h8.73l8.73-8.73h52.5l26.19,26.35ZM773.16,168.59l-17.47-17.47-17.47,17.47v70l17.47,17.47,17.47-17.47v-70Z"/>
  </g>
  <g>
    <g id="ktknYn">
      <g>
        <rect class="cls-1" x="1074.12" y="330.79" width="13.23" height="13.23"/>
        <rect class="cls-1" x="1060.89" y="330.79" width="13.23" height="13.23"/>
        <rect class="cls-1" x="928.58" y="330.79" width="13.23" height="13.23"/>
        <rect class="cls-1" x="915.35" y="330.79" width="13.23" height="13.23"/>
        <rect class="cls-1" x="902.11" y="330.79" width="13.23" height="13.23"/>
        <rect class="cls-1" x="1087.36" y="317.56" width="13.23" height="13.23"/>
        <rect class="cls-1" x="1074.12" y="317.56" width="13.23" height="13.23"/>
        <rect class="cls-1" x="1047.66" y="317.56" width="13.23" height="13.23"/>
        <rect class="cls-1" x="1034.43" y="317.56" width="13.23" height="13.23"/>
        <rect class="cls-1" x="941.81" y="317.56" width="13.23" height="13.23"/>
        <rect class="cls-1" x="928.58" y="317.56" width="13.23" height="13.23"/>
        <rect class="cls-1" x="902.11" y="317.56" width="13.23" height="13.23"/>
        <rect class="cls-1" x="888.88" y="317.56" width="13.23" height="13.23"/>
        <rect class="cls-1" x="1087.36" y="304.32" width="13.23" height="13.23"/>
        <rect class="cls-1" x="1034.43" y="304.32" width="13.23" height="13.23"/>
        <rect class="cls-1" x="941.81" y="304.32" width="13.23" height="13.23"/>
        <rect class="cls-1" x="888.88" y="304.32" width="13.23" height="13.23"/>
        <rect class="cls-1" x="1047.66" y="330.79" width="13.23" height="13.23"/>
        <rect class="cls-1" x="1087.36" y="291.09" width="13.23" height="13.23"/>
        <rect class="cls-1" x="1034.43" y="291.09" width="13.23" height="13.23"/>
        <rect class="cls-1" x="941.81" y="291.09" width="13.23" height="13.23"/>
        <rect class="cls-1" x="888.88" y="291.09" width="13.23" height="13.23"/>
        <rect class="cls-1" x="1087.36" y="277.86" width="13.23" height="13.23"/>
        <rect class="cls-1" x="1074.12" y="277.86" width="13.23" height="13.23"/>
        <rect class="cls-1" x="1047.66" y="277.86" width="13.23" height="13.23"/>
        <rect class="cls-1" x="1034.43" y="277.86" width="13.23" height="13.23"/>
        <rect class="cls-1" x="941.81" y="277.86" width="13.23" height="13.23"/>
        <rect class="cls-1" x="928.58" y="277.86" width="13.23" height="13.23"/>
        <rect class="cls-1" x="902.11" y="277.86" width="13.23" height="13.23"/>
        <rect class="cls-1" x="888.88" y="277.86" width="13.23" height="13.23"/>
        <rect class="cls-1" x="1074.12" y="264.63" width="13.23" height="13.23"/>
        <rect class="cls-1" x="1060.89" y="264.63" width="13.23" height="13.23"/>
        <rect class="cls-1" x="1047.66" y="264.63" width="13.23" height="13.23"/>
        <rect class="cls-1" x="928.58" y="264.63" width="13.23" height="13.23"/>
        <rect class="cls-1" x="915.35" y="264.63" width="13.23" height="13.23"/>
        <rect class="cls-1" x="902.11" y="264.63" width="13.23" height="13.23"/>
        <rect class="cls-1" x="1100.59" y="251.4" width="13.23" height="13.23"/>
        <rect class="cls-1" x="1087.36" y="251.4" width="13.23" height="13.23"/>
        <rect class="cls-1" x="1074.12" y="251.4" width="13.23" height="13.23"/>
        <rect class="cls-1" x="1060.89" y="251.4" width="13.23" height="13.23"/>
        <rect class="cls-1" x="1047.66" y="251.4" width="13.23" height="13.23"/>
        <rect class="cls-1" x="1034.43" y="251.4" width="13.23" height="13.23"/>
        <rect class="cls-1" x="1021.2" y="251.4" width="13.23" height="13.23"/>
        <rect class="cls-1" x="1007.97" y="251.4" width="13.23" height="13.23"/>
        <rect class="cls-1" x="994.74" y="251.4" width="13.23" height="13.23"/>
        <rect class="cls-1" x="981.5" y="251.4" width="13.23" height="13.23"/>
        <rect class="cls-1" x="968.27" y="251.4" width="13.23" height="13.23"/>
        <rect class="cls-1" x="955.04" y="251.4" width="13.23" height="13.23"/>
        <rect class="cls-1" x="941.81" y="251.4" width="13.23" height="13.23"/>
        <rect class="cls-1" x="928.58" y="251.4" width="13.23" height="13.23"/>
        <rect class="cls-1" x="915.35" y="251.4" width="13.23" height="13.23"/>
        <rect class="cls-1" x="902.11" y="251.4" width="13.23" height="13.23"/>
        <rect class="cls-1" x="888.88" y="251.4" width="13.23" height="13.23"/>
        <rect class="cls-1" x="888.88" y="238.17" width="13.23" height="13.23"/>
        <rect class="cls-1" x="875.65" y="238.17" width="13.23" height="13.23"/>
        <rect class="cls-1" x="875.65" y="224.94" width="13.23" height="13.23"/>
        <rect class="cls-1" x="875.65" y="211.7" width="13.23" height="13.23"/>
        <rect class="cls-1" x="1087.36" y="198.47" width="13.23" height="13.23"/>
        <rect class="cls-1" x="1074.12" y="198.47" width="13.23" height="13.23"/>
        <rect class="cls-1" x="1060.89" y="198.47" width="13.23" height="13.23"/>
        <rect class="cls-1" x="1047.66" y="198.47" width="13.23" height="13.23"/>
        <rect class="cls-1" x="1034.43" y="198.47" width="13.23" height="13.23"/>
        <rect class="cls-1" x="1021.2" y="198.47" width="13.23" height="13.23"/>
        <rect class="cls-1" x="1007.97" y="198.47" width="13.23" height="13.23"/>
        <rect class="cls-1" x="994.74" y="198.47" width="13.23" height="13.23"/>
        <rect class="cls-1" x="981.5" y="198.47" width="13.23" height="13.23"/>
        <rect class="cls-1" x="968.27" y="198.47" width="13.23" height="13.23"/>
        <rect class="cls-1" x="955.04" y="198.47" width="13.23" height="13.23"/>
        <rect class="cls-1" x="941.81" y="198.47" width="13.23" height="13.23"/>
        <rect class="cls-1" x="928.58" y="198.47" width="13.23" height="13.23"/>
        <rect class="cls-1" x="915.35" y="198.47" width="13.23" height="13.23"/>
        <rect class="cls-1" x="902.11" y="198.47" width="13.23" height="13.23"/>
        <rect class="cls-1" x="888.88" y="198.47" width="13.23" height="13.23"/>
        <rect class="cls-1" x="875.65" y="198.47" width="13.23" height="13.23"/>
        <rect class="cls-1" x="1100.59" y="185.24" width="13.23" height="13.23"/>
        <rect class="cls-1" x="1087.36" y="185.24" width="13.23" height="13.23"/>
        <rect class="cls-1" x="902.11" y="185.24" width="13.23" height="13.23"/>
        <rect class="cls-1" x="888.88" y="185.24" width="13.23" height="13.23"/>
        <rect class="cls-1" x="1100.59" y="172.01" width="13.23" height="13.23"/>
        <rect class="cls-1" x="1087.36" y="172.01" width="13.23" height="13.23"/>
        <rect class="cls-1" x="888.88" y="172.01" width="13.23" height="13.23"/>
        <rect class="cls-1" x="1100.59" y="158.78" width="13.23" height="13.23"/>
        <rect class="cls-1" x="888.88" y="158.78" width="13.23" height="13.23"/>
        <rect class="cls-1" x="1113.82" y="145.55" width="13.23" height="13.23"/>
        <rect class="cls-1" x="1100.59" y="145.55" width="13.23" height="13.23"/>
        <rect class="cls-1" x="888.88" y="145.55" width="13.23" height="13.23"/>
        <rect class="cls-1" x="875.65" y="145.55" width="13.23" height="13.23"/>
        <rect class="cls-1" x="1113.82" y="132.32" width="13.23" height="13.23"/>
        <rect class="cls-1" x="875.65" y="132.32" width="13.23" height="13.23"/>
        <rect class="cls-1" x="1113.82" y="119.08" width="13.23" height="13.23"/>
        <rect class="cls-1" x="875.65" y="119.08" width="13.23" height="13.23"/>
        <rect class="cls-1" x="1113.82" y="105.85" width="13.23" height="13.23"/>
        <rect class="cls-1" x="875.65" y="105.85" width="13.23" height="13.23"/>
        <rect class="cls-1" x="862.42" y="105.85" width="13.23" height="13.23"/>
        <rect class="cls-1" x="1127.05" y="92.62" width="13.23" height="13.23"/>
        <rect class="cls-1" x="1113.82" y="92.62" width="13.23" height="13.23"/>
        <rect class="cls-1" x="862.42" y="92.62" width="13.23" height="13.23"/>
        <rect class="cls-1" x="1127.05" y="79.39" width="13.23" height="13.23"/>
        <rect class="cls-1" x="862.42" y="79.39" width="13.23" height="13.23"/>
        <rect class="cls-1" x="1127.05" y="66.16" width="13.23" height="13.23"/>
        <rect class="cls-1" x="1113.82" y="66.16" width="13.23" height="13.23"/>
        <rect class="cls-1" x="1100.59" y="66.16" width="13.23" height="13.23"/>
        <rect class="cls-1" x="1087.36" y="66.16" width="13.23" height="13.23"/>
        <rect class="cls-1" x="1074.12" y="66.16" width="13.23" height="13.23"/>
        <rect class="cls-1" x="1060.89" y="66.16" width="13.23" height="13.23"/>
        <rect class="cls-1" x="1047.66" y="66.16" width="13.23" height="13.23"/>
        <rect class="cls-1" x="1034.43" y="66.16" width="13.23" height="13.23"/>
        <rect class="cls-1" x="1021.2" y="66.16" width="13.23" height="13.23"/>
        <rect class="cls-1" x="1007.97" y="66.16" width="13.23" height="13.23"/>
        <rect class="cls-1" x="994.74" y="66.16" width="13.23" height="13.23"/>
        <rect class="cls-1" x="981.5" y="66.16" width="13.23" height="13.23"/>
        <rect class="cls-1" x="968.27" y="66.16" width="13.23" height="13.23"/>
        <rect class="cls-1" x="955.04" y="66.16" width="13.23" height="13.23"/>
        <rect class="cls-1" x="941.81" y="66.16" width="13.23" height="13.23"/>
        <rect class="cls-1" x="928.58" y="66.16" width="13.23" height="13.23"/>
        <rect class="cls-1" x="915.35" y="66.16" width="13.23" height="13.23"/>
        <rect class="cls-1" x="902.11" y="66.16" width="13.23" height="13.23"/>
        <rect class="cls-1" x="888.88" y="66.16" width="13.23" height="13.23"/>
        <rect class="cls-1" x="875.65" y="66.16" width="13.23" height="13.23"/>
        <rect class="cls-1" x="862.42" y="66.16" width="13.23" height="13.23"/>
        <rect class="cls-1" x="849.19" y="66.17" width="13.23" height="13.23"/>
        <rect class="cls-1" x="1127.05" y="52.93" width="13.23" height="13.23"/>
        <rect class="cls-1" x="1113.82" y="52.93" width="13.23" height="13.23"/>
        <rect class="cls-1" x="1100.59" y="52.93" width="13.23" height="13.23"/>
        <rect class="cls-1" x="1087.36" y="52.93" width="13.23" height="13.23"/>
        <rect class="cls-1" x="1074.12" y="52.93" width="13.23" height="13.23"/>
        <rect class="cls-1" x="1060.89" y="52.93" width="13.23" height="13.23"/>
        <rect class="cls-1" x="1047.66" y="52.93" width="13.23" height="13.23"/>
        <rect class="cls-1" x="1034.43" y="52.93" width="13.23" height="13.23"/>
        <rect class="cls-1" x="1021.2" y="52.93" width="13.23" height="13.23"/>
        <rect class="cls-1" x="1007.97" y="52.93" width="13.23" height="13.23"/>
        <rect class="cls-1" x="994.74" y="52.93" width="13.23" height="13.23"/>
        <rect class="cls-1" x="981.5" y="52.93" width="13.23" height="13.23"/>
        <rect class="cls-1" x="968.27" y="52.93" width="13.23" height="13.23"/>
        <rect class="cls-1" x="955.04" y="52.93" width="13.23" height="13.23"/>
        <rect class="cls-1" x="941.81" y="52.93" width="13.23" height="13.23"/>
        <rect class="cls-1" x="928.58" y="52.93" width="13.23" height="13.23"/>
        <rect class="cls-1" x="915.35" y="52.93" width="13.23" height="13.23"/>
        <rect class="cls-1" x="902.11" y="52.93" width="13.23" height="13.23"/>
        <rect class="cls-1" x="888.88" y="52.93" width="13.23" height="13.23"/>
        <rect class="cls-1" x="875.65" y="52.93" width="13.23" height="13.23"/>
        <rect class="cls-1" x="862.42" y="52.93" width="13.23" height="13.23"/>
        <rect class="cls-1" x="849.19" y="52.93" width="13.23" height="13.23"/>
        <rect class="cls-1" x="849.19" y="39.69" width="13.23" height="13.23"/>
        <rect class="cls-1" x="849.19" y="26.46" width="13.23" height="13.23"/>
        <rect class="cls-1" x="835.96" y="26.46" width="13.23" height="13.23"/>
        <rect class="cls-1" x="835.96" y="13.23" width="13.23" height="13.23"/>
        <rect class="cls-1" x="822.79" y="0" width="13.23" height="13.23"/>
        <rect class="cls-1" x="809.62" width="13.17" height="13.23"/>
        <rect class="cls-1" x="796.41" y="0" width="13.23" height="13.23"/>
      </g>
    </g>
    <rect class="cls-1" x="875.79" y="185.21" width="13.23" height="13.23"/>
    <rect class="cls-1" x="875.79" y="171.98" width="13.23" height="13.23"/>
    <rect class="cls-1" x="875.79" y="158.75" width="13.23" height="13.23"/>
    <rect class="cls-1" x="862.55" y="158.75" width="13.23" height="13.23"/>
    <rect class="cls-1" x="862.55" y="145.52" width="13.23" height="13.23"/>
    <rect class="cls-1" x="862.55" y="132.29" width="13.23" height="13.23"/>
    <rect class="cls-1" x="862.55" y="119.05" width="13.23" height="13.23"/>
    <polygon class="cls-1" points="849.19 132.2 862.72 132.23 862.72 119 849.19 118.97 849.19 132.2"/>
    <rect class="cls-1" x="849.19" y="105.77" width="13.23" height="13.23"/>
    <polyline class="cls-1" points="849.19 92.54 849.19 105.77 862.43 105.77 862.43 92.54"/>
    <polyline class="cls-1" points="849.19 79.4 849.19 92.64 862.42 92.64 862.42 79.4"/>
    <polyline class="cls-1" points="836.02 26.46 836.02 13.23 822.79 13.23 822.79 26.46"/>
    <polyline class="cls-1" points="822.8 26.46 822.8 13.23 809.63 13.23 809.56 26.46"/>
    <polyline class="cls-1" points="809.57 26.46 809.63 13.23 796.4 13.23 796.34 26.46"/>
    <polyline class="cls-1" points="849.56 64.71 849.56 51.48 836.33 51.48 836.33 64.71"/>
    <rect class="cls-1" x="836.33" y="38.24" width="13.23" height="13.23"/>
    <polyline class="cls-1" points="823.1 51.48 836.33 51.48 836.33 38.24 823.1 38.24"/>
    <rect class="cls-1" x="823.13" y="25.94" width="13.23" height="13.23"/>
    <polyline class="cls-1" points="1113.66 185.37 1100.42 185.37 1100.42 198.6 1113.66 198.6"/>
    <rect class="cls-1" x="1087.19" y="185.37" width="13.23" height="13.23"/>
    <rect class="cls-1" x="1073.96" y="185.37" width="13.23" height="13.23"/>
    <rect class="cls-1" x="1060.73" y="185.37" width="13.23" height="13.23"/>
    <rect class="cls-1" x="1047.5" y="185.37" width="13.23" height="13.23"/>
    <rect class="cls-1" x="1034.27" y="185.37" width="13.23" height="13.23"/>
    <rect class="cls-1" x="1021.03" y="185.37" width="13.23" height="13.23"/>
    <rect class="cls-1" x="1007.8" y="185.37" width="13.23" height="13.23"/>
    <rect class="cls-1" x="994.57" y="185.37" width="13.23" height="13.23"/>
    <rect class="cls-1" x="981.34" y="185.37" width="13.23" height="13.23"/>
    <rect class="cls-1" x="968.11" y="185.37" width="13.23" height="13.23"/>
    <rect class="cls-1" x="954.88" y="185.37" width="13.23" height="13.23"/>
    <rect class="cls-1" x="941.65" y="185.37" width="13.23" height="13.23"/>
    <rect class="cls-1" x="928.41" y="185.37" width="13.23" height="13.23"/>
    <polyline class="cls-1" points="915.18 185.37 915.18 198.6 928.41 198.6 928.41 185.37 915.18 185.37"/>
    <polyline class="cls-1" points="1100.42 172.14 1100.42 185.37 1113.66 185.37"/>
    <polyline class="cls-1" points="1100.67 172.03 1100.67 158.8 1087.44 158.8 1087.44 172.03"/>
    <polyline class="cls-1" points="1087.44 172.03 1087.44 158.8 1074.21 158.8 1074.21 172.03"/>
    <rect class="cls-1" x="1087.44" y="145.57" width="13.23" height="13.23"/>
    <rect class="cls-1" x="1100.67" y="132.34" width="13.23" height="13.23"/>
    <rect class="cls-1" x="1087.44" y="132.34" width="13.23" height="13.23"/>
    <rect class="cls-1" x="1100.67" y="119.1" width="13.23" height="13.23"/>
    <rect class="cls-1" x="1100.67" y="105.87" width="13.23" height="13.23"/>
    <rect class="cls-1" x="1100.67" y="92.64" width="13.23" height="13.23"/>
    <rect class="cls-1" x="1113.9" y="79.41" width="13.23" height="13.23"/>
    <rect class="cls-1" x="1100.67" y="79.41" width="13.23" height="13.23"/>
    <polyline class="cls-1" points="1113.9 66.18 1113.9 79.41 1127.13 79.41 1127.13 66.18"/>
    <polygon class="cls-1" points="1074.15 185.43 1087.38 185.43 1087.44 172.03 1074.21 172.03 1074.15 185.43"/>
    <polyline class="cls-1" points="1127.09 251.57 1127.09 238.34 1113.86 238.34 1113.86 251.57"/>
    <polyline class="cls-1" points="1113.86 251.57 1113.86 238.34 1100.63 238.34 1100.63 251.57"/>
    <polyline class="cls-1" points="1100.63 251.57 1100.63 238.34 1087.39 238.34 1087.39 251.57"/>
    <polyline class="cls-1" points="1087.39 251.57 1087.39 238.34 1074.16 238.34 1074.16 251.57"/>
    <polyline class="cls-1" points="1074.16 251.57 1074.16 238.34 1060.93 238.34 1060.93 251.57"/>
    <polyline class="cls-1" points="1060.93 251.57 1060.93 238.34 1047.7 238.34 1047.7 251.57"/>
    <polyline class="cls-1" points="1047.7 251.57 1047.7 238.34 1034.47 238.34 1034.47 251.57"/>
    <polyline class="cls-1" points="1034.47 251.57 1034.47 238.34 1021.24 238.34 1021.24 251.57"/>
    <polyline class="cls-1" points="1021.24 251.57 1021.24 238.34 1008.01 238.34 1008.01 251.57"/>
    <polyline class="cls-1" points="1008.01 251.57 1008.01 238.34 994.77 238.34 994.77 251.57"/>
    <polyline class="cls-1" points="994.77 251.57 994.77 238.34 981.54 238.34 981.54 251.57"/>
    <polyline class="cls-1" points="981.54 251.57 981.54 238.34 968.31 238.34 968.31 251.57"/>
    <polyline class="cls-1" points="968.31 251.57 968.31 238.34 955.08 238.34 955.08 251.57"/>
    <polyline class="cls-1" points="955.08 251.57 955.08 238.34 941.85 238.34 941.85 251.57"/>
    <polyline class="cls-1" points="941.85 251.57 941.85 238.34 928.62 238.34 928.62 251.57"/>
    <polyline class="cls-1" points="928.62 251.57 928.62 238.34 915.39 238.34 915.39 251.57"/>
    <polyline class="cls-1" points="915.39 251.57 915.39 238.34 902.15 238.34 902.15 251.57"/>
    <rect class="cls-1" x="902.15" y="225.11" width="13.23" height="13.23"/>
    <rect class="cls-1" x="888.92" y="225.11" width="13.23" height="13.23"/>
    <rect class="cls-1" x="888.92" y="211.87" width="13.23" height="13.23"/>
    <polyline class="cls-1" points="888.92 198.64 888.92 211.87 902.15 211.87 902.15 198.64"/>
    <rect class="cls-1" x="783.21" y=".02" width="13.23" height="13.23"/>
    <polyline class="cls-1" points="796.37 26.47 796.44 13.24 783.21 13.24 783.14 26.47"/>
  </g>
</svg>